<svg id="Layer_5" enable-background="new 0 0 64 64" height="512" viewBox="0 0 64 64" width="512" xmlns="http://www.w3.org/2000/svg"><path d="m30 37h2v2h-2z"/><path d="m30 41.004c.018 4.139.62 8.269 1.791 12.277l1.92-.561c-1.119-3.829-1.694-7.774-1.711-11.725z"/><path d="m54 37.051v-4.051h-28v7.819c0 7.469 1.766 14.947 5.105 21.628l.277.553h17.236l.276-.553c.908-1.817 1.689-3.696 2.361-5.615.575.102 1.158.168 1.745.168 5.514 0 10-4.486 10-10 0-5.176-3.954-9.446-9-9.949zm-.068 6.07c1.756.423 3.068 1.995 3.068 3.879 0 2.206-1.794 4-4 4-.036 0-.071-.01-.107-.011.558-2.59.911-5.223 1.039-7.868zm-6.555 17.879h-14.754c-3.026-6.263-4.623-13.226-4.623-20.181v-5.819h24v5.819c0 6.955-1.597 13.918-4.623 20.181zm5.623-6c-.374 0-.745-.035-1.113-.086.195-.643.366-1.292.535-1.942.192.018.385.028.578.028 3.309 0 6-2.691 6-6 0-2.97-2.171-5.436-5.008-5.911 0-.09.008-.18.008-.27v-1.75c3.94.495 7 3.859 7 7.931 0 4.411-3.589 8-8 8z"/><path d="m24 57h-4v-21.963c0-1.294.812-2.463 1.976-2.843 6.594-2.154 11.024-8.26 11.024-15.194v-16h-32v16c0 6.934 4.43 13.04 11.024 15.194 1.164.38 1.976 1.549 1.976 2.843v21.963h-4c-2.757 0-5 2.243-5 5v1h24v-1c0-2.757-2.243-5-5-5zm-16.829 4c.413-1.164 1.525-2 2.829-2h6v-23.963c0-2.182-1.348-4.088-3.354-4.744-5.77-1.885-9.646-7.227-9.646-13.293v-14h28v14c0 6.066-3.876 11.408-9.646 13.293-2.006.656-3.354 2.562-3.354 4.744v23.963h6c1.304 0 2.416.836 2.829 2z"/><path d="m29 17v-8h-2v8c0 2.568-.968 5.005-2.726 6.862l1.452 1.375c2.111-2.23 3.274-5.155 3.274-8.237z"/><path d="m27 5h2v2h-2z"/><path d="m59 21h-2c0 2.206-1.794 4-4 4v2c2.206 0 4 1.794 4 4h2c0-2.206 1.794-4 4-4v-2c-2.206 0-4-1.794-4-4zm-1 6.687c-.444-.668-1.019-1.242-1.687-1.687.668-.444 1.242-1.019 1.687-1.687.444.668 1.019 1.242 1.687 1.687-.668.444-1.243 1.019-1.687 1.687z"/><path d="m41 13h2c0-2.206 1.794-4 4-4v-2c-2.206 0-4-1.794-4-4h-2c0 2.206-1.794 4-4 4v2c2.206 0 4 1.794 4 4zm1-6.687c.444.668 1.019 1.243 1.687 1.687-.668.444-1.243 1.019-1.687 1.687-.444-.668-1.019-1.243-1.687-1.687.668-.444 1.243-1.019 1.687-1.687z"/></svg>